:version 1.10
:name ASF
:units
  mass 1
  length 1
  angle deg
:documentation
  ASF file generated by Kaydara
:root
  axis xyz
  order  tx ty tz rx ry rz
  position 0 0 0
  orientation 0 0 0
:bonedata
  begin
    id 1
    name lowerbackDummy
    direction 0 0 0
    length 0
    axis 0 -0 0 xyz
  end
  begin
    id 2
    name lowerback
    direction 0.0149039 0.998517 -0.0523597
    length 4.68464
    axis 0 -0 0 xyz
    dof rx ry rz
    limits( -inf , inf )
( -inf , inf )
( -inf , inf )

  end
  begin
    id 3
    name upperback
    direction -0.00882659 0.999418 -0.0329624
    length 4.68933
    axis 0 -0 0 xyz
    dof rx ry rz
    limits( -inf , inf )
( -inf , inf )
( -inf , inf )

  end
  begin
    id 4
    name thorax
    direction -0.0165585 0.999826 -0.0085833
    length 4.68976
    axis 0 -0 0 xyz
    dof rx ry rz
    limits( -inf , inf )
( -inf , inf )
( -inf , inf )

  end
  begin
    id 5
    name lowerneck
    direction -0.0130877 0.999911 0.00260353
    length 3.85007
    axis 0 -0 0 xyz
    dof rx ry rz
    limits( -inf , inf )
( -inf , inf )
( -inf , inf )

  end
  begin
    id 6
    name upperneck
    direction -0.0348454 0.928205 -0.370435
    length 3.70427
    axis 0 -0 0 xyz
    dof rx ry rz
    limits( -inf , inf )
( -inf , inf )
( -inf , inf )

  end
  begin
    id 7
    name head
    direction 0 0 0
    length 0
    axis 0 0 0 xyz
    dof rx ry rz
    limits( -inf , inf )
( -inf , inf )
( -inf , inf )

  end
  begin
    id 8
    name lclavicle
    direction 0.987582 0.144023 0.0627671
    length 7.76078
    axis 0 -0 0 xyz
    dof rx ry rz
    limits( -inf , inf )
( -inf , inf )
( -inf , inf )

  end
  begin
    id 9
    name lhumerus
    direction 1 -4.48958e-011 -1.45183e-018
    length 12.0426
    axis 180 -30 -90 xyz
    dof rx ry rz
    limits( -inf , inf )
( -inf , inf )
( -inf , inf )

  end
  begin
    id 10
    name lradius
    direction 1 -4.48999e-011 3.74805e-027
    length 5.43051
    axis 180 -30 -90 xyz
    dof rz ry rx
    limits( -inf , inf )
( -inf , inf )
( -inf , inf )

  end
  begin
    id 11
    name lwrist
    direction 1 -4.48988e-011 -4.48237e-017
    length 2.71524
    axis -90 90 0 xyz
    dof rz rx ry
    limits( -inf , inf )
( -inf , inf )
( -inf , inf )

  end
  begin
    id 12
    name lhand
    direction 1 -4.48882e-011 -4.48237e-017
    length 1.61667
    axis -90 90 0 xyz
    dof ry rx rz
    limits( -inf , inf )
( -inf , inf )
( -inf , inf )

  end
  begin
    id 13
    name lfingers
    direction 0 0 0
    length 0
    axis 0 0 0 xyz
    dof rz ry rx
    limits( -inf , inf )
( -inf , inf )
( -inf , inf )

  end
  begin
    id 14
    name lthumb
    direction 0 0 0
    length 0
    axis 0 0 0 xyz
    dof ry rx rz
    limits( -inf , inf )
( -inf , inf )
( -inf , inf )

  end
  begin
    id 15
    name rclavicle
    direction -0.980998 0.169556 0.0943023
    length 7.31716
    axis 0 -0 0 xyz
    dof rx ry rz
    limits( -inf , inf )
( -inf , inf )
( -inf , inf )

  end
  begin
    id 16
    name rhumerus
    direction -1 -1.83355e-005 2.45537e-005
    length 12.4217
    axis 180 30 90 xyz
    dof rx ry rz
    limits( -inf , inf )
( -inf , inf )
( -inf , inf )

  end
  begin
    id 17
    name rradius
    direction -1 -4.48967e-011 0
    length 5.51244
    axis 180 30 90 xyz
    dof rz ry rx
    limits( -inf , inf )
( -inf , inf )
( -inf , inf )

  end
  begin
    id 18
    name rwrist
    direction -1 -4.48964e-011 -4.48237e-017
    length 2.75622
    axis -90 -90 0 xyz
    dof rz rx ry
    limits( -inf , inf )
( -inf , inf )
( -inf , inf )

  end
  begin
    id 19
    name rhand
    direction -1 -4.48882e-011 -4.48237e-017
    length 1.81335
    axis -90 -90 0 xyz
    dof ry rx rz
    limits( -inf , inf )
( -inf , inf )
( -inf , inf )

  end
  begin
    id 20
    name rfingers
    direction 0 0 0
    length 0
    axis 0 0 0 xyz
    dof rz ry rx
    limits( -inf , inf )
( -inf , inf )
( -inf , inf )

  end
  begin
    id 21
    name rthumb
    direction 0 0 0
    length 0
    axis 0 0 0 xyz
    dof ry rx rz
    limits( -inf , inf )
( -inf , inf )
( -inf , inf )

  end
  begin
    id 22
    name rfemurDummy
    direction -0.640058 -0.688614 0.340788
    length 5.51442
    axis 0 -0 0 xyz
  end
  begin
    id 23
    name rfemur
    direction -0.34202 -0.939693 0
    length 14.6194
    axis 0 -0 -20 xyz
    dof rx ry rz
    limits( -inf , inf )
( -inf , inf )
( -inf , inf )

  end
  begin
    id 24
    name rtibia
    direction -0.34202 -0.939693 0
    length 17.7267
    axis 0 -0 -20 xyz
    dof rz ry rx
    limits( -inf , inf )
( -inf , inf )
( -inf , inf )

  end
  begin
    id 25
    name rfoot
    direction -0.0979793 -0.269196 0.958089
    length 4.88571
    axis -90 -7.62852e-016 -20 xyz
    dof ry rx rz
    limits( -inf , inf )
( -inf , inf )
( -inf , inf )

  end
  begin
    id 26
    name rtoes
    direction 0 0 0
    length 0
    axis 0 0 0 xyz
    dof rz ry rx
    limits( -inf , inf )
( -inf , inf )
( -inf , inf )

  end
  begin
    id 27
    name lfemurDummy
    direction 0.653368 -0.678499 0.335782
    length 5.59662
    axis 0 -0 0 xyz
  end
  begin
    id 28
    name lfemur
    direction 0.34202 -0.939693 0
    length 14.6166
    axis 0 -0 20 xyz
    dof rx ry rz
    limits( -inf , inf )
( -inf , inf )
( -inf , inf )

  end
  begin
    id 29
    name ltibia
    direction 0.34202 -0.939693 0
    length 17.6582
    axis 0 -0 20 xyz
    dof rz ry rx
    limits( -inf , inf )
( -inf , inf )
( -inf , inf )

  end
  begin
    id 30
    name lfoot
    direction 0.0811271 -0.222895 0.971461
    length 5.14087
    axis -90 7.62852e-016 20 xyz
    dof ry rx rz
    limits( -inf , inf )
( -inf , inf )
( -inf , inf )

  end
  begin
    id 31
    name ltoes
    direction 0 0 0
    length 0
    axis 0 0 0 xyz
    dof rz ry rx
    limits( -inf , inf )
( -inf , inf )
( -inf , inf )

  end
:hierarchy
  begin
    root lowerbackDummy rfemurDummy lfemurDummy
    lowerbackDummy lowerback
    lowerback upperback
    upperback thorax
    thorax lowerneck lclavicle rclavicle
    lowerneck upperneck
    upperneck head
    lclavicle lhumerus
    lhumerus lradius
    lradius lwrist
    lwrist lhand lthumb
    lhand lfingers
    rclavicle rhumerus
    rhumerus rradius
    rradius rwrist
    rwrist rhand rthumb
    rhand rfingers
    rfemurDummy rfemur
    rfemur rtibia
    rtibia rfoot
    rfoot rtoes
    lfemurDummy lfemur
    lfemur ltibia
    ltibia lfoot
    lfoot ltoes
  end

:SAMPLES-PER-SECOND 30
:FULLY-SPECIFIED
:DEGREES
126
root  0.5921066746 37.07088861 -14.30882281 8.215470314 -0.7573459744 -3.92956996
lowerback  -2.258500099 1.737490058 4.322710037
upperback  -1.754150033 2.250260115 2.044329882
thorax  -0.4526540041 1.097880006 -0.2796530128
lowerneck  -16.02980042 -0.02344850078 -1.777310014
upperneck  41.10689926 1.249580026 -1.245110035
head  18.01939964 0.07287050039 -0.008369740099
lclavicle  0 5.864150125e-015 -2.067359921e-014
lhumerus  -47.76789856 25.88220024 60.33589935
lradius  -2.667345922e-031 -2.313894935e-031 40.94129944
lwrist  -7.062250077e-031 -0 3.870840073
lhand  -7.078236724e-031 -3.851550102 21.3845005
lfingers  90 7.125020027 -90
lthumb  91.93088069 4.791950994 68.02270072
rclavicle  0 5.864150125e-015 -2.067359921e-014
rhumerus  -41.34389877 -14.19649982 -69.79959869
rradius  3.2082362e-031 1.475148982e-031 24.69300079
rwrist  7.062250077e-031 -1.765562519e-031 -8.62967968
rhand  -3.559908359e-031 -7.290909767 13.44089985
rfingers  -90 -7.125020027 -90
rthumb  -79.85285939 -27.64422332 -68.90632317
rfemur  -28.57690048 14.87160015 24.93440056
rtibia  -0 0 31.8560009
rfoot  -0 -14.68480015 -17.37360001
rtoes  3.412233019 19.71852244 -100.0218301
lfemur  -11.09799957 1.317479968 -18.86610031
ltibia  -0 0 55.76720047
lfoot  -0 -8.501689911 23.21520042
ltoes  -0.5611054702 -19.99244966 -91.64076066
127
root  0.5461311246 37.10088955 -13.98519982 8.251449585 -0.9665650129 -4.130280018
lowerback  -2.596869946 1.85916996 4.451889992
upperback  -1.385769963 2.371880054 2.148260117
thorax  0.1204700023 1.171470046 -0.2227319926
lowerneck  -16.20910072 -0.1581400037 -2.367549896
upperneck  40.61930084 1.073619962 -0.8363190293
head  17.77589989 -0.02798230015 0.255881995
lclavicle  0 5.864150125e-015 -2.067359921e-014
lhumerus  -47.58789825 26.19750023 60.97639847
lradius  -2.685048541e-031 -2.293329102e-031 40.50099945
lwrist  -1.059337512e-030 -1.765562519e-031 4.568840027
lhand  -7.06950717e-031 -2.596339941 20.44829941
lfingers  90 7.125020027 -90
lthumb  91.60445342 3.755473137 66.8460962
rclavicle  0 5.864150125e-015 -2.067359921e-014
rhumerus  -40.53559875 -13.50039959 -70.44499969
rradius  3.188607242e-031 1.517111695e-031 25.44470024
rwrist  1.412450015e-030 -0 -9.872249603
rhand  -3.556079513e-031 -6.791729927 13.69489956
rfingers  -90 -7.125020027 -90
rthumb  -79.48058631 -27.83800465 -68.31501084
rfemur  -27.8635006 14.9059 25.38299942
rtibia  -0 0 31.53660011
rfoot  -0 -14.66909981 -17.25659943
rtoes  2.80904649 19.80975167 -98.23816874
lfemur  -12.6637001 1.924200058 -18.5237999
ltibia  -0 0 57.55780029
lfoot  -0 -7.846710205 22.82029915
ltoes  -0.7794855068 -19.98542586 -92.27959422
128
root  0.5151399947 37.13222113 -13.68119998 8.358849525 -1.17750001 -4.128139973
lowerback  -2.204440117 1.99296999 4.540160179
upperback  -1.735170007 2.589649916 2.084690094
thorax  -0.4439240098 1.26602006 -0.3528589904
lowerneck  -16.14209938 -0.07983080298 -2.222520113
upperneck  41.04169846 1.199569941 -0.9322860241
head  18.00550079 0.0286464002 0.2092619985
lclavicle  0 5.864150125e-015 -2.067359921e-014
lhumerus  -48.27209854 26.10639954 60.88809967
lradius  -2.721081052e-031 -2.250458163e-031 39.59230042
lwrist  -1.059337512e-030 -1.765562519e-031 4.713190079
lhand  -3.533157822e-031 -1.943670034 19.97960091
lfingers  90 7.125020027 -90
lthumb  91.42390743 3.235763651 66.23238002
rclavicle  0 5.864150125e-015 -2.067359921e-014
rhumerus  -40.93880081 -13.0557003 -70.57920074
rradius  3.173986476e-031 1.547466927e-031 25.99139977
rwrist  1.412450015e-030 -1.765562519e-031 -10.67300034
rhand  -3.553482682e-031 -6.430600166 14.44989967
rfingers  -90 -7.125020027 -90
rthumb  -78.96294394 -28.50538854 -67.76985512
rfemur  -27.22489929 14.79440022 25.57150078
rtibia  -0 0 31.20439911
rfoot  -0 -14.65200043 -17.01609993
rtoes  2.55923623 19.84223529 -97.50163225
lfemur  -14.31820011 2.422199965 -18.4993
ltibia  -0 0 59.16490173
lfoot  -0 -7.215620041 22.39870071
ltoes  -1.080644765 -19.97197771 -93.16100989
129
root  0.4987955563 37.16511163 -13.39828912 8.494190216 -1.191069961 -4.288400173
lowerback  -1.967929959 2.103070021 4.876130104
upperback  -1.956650019 2.757590055 2.076309919
thorax  -0.7825480103 1.337560058 -0.558430016
lowerneck  -16.75379944 0.1933169961 -1.174690008
upperneck  41.83190155 1.712049961 -1.899919987
head  18.67289925 0.2533999979 -0.3390580118
lclavicle  0 5.864150125e-015 -2.067359921e-014
lhumerus  -48.79119873 26.82060051 60.26710129
lradius  -2.78079919e-031 -2.176235259e-031 38.04650116
lwrist  -3.531125038e-031 -1.765562519e-031 3.362580061
lhand  -7.065781653e-031 -1.811589956 21.19750023
lfingers  90 7.125020027 -90
lthumb  91.91905995 4.330909527 66.07332984
rclavicle  0 5.864150125e-015 -2.067359921e-014
rhumerus  -41.17259979 -12.8039999 -70.62190247
rradius  3.158421119e-031 1.578993374e-031 26.56189919
rwrist  0 -1.765562519e-031 -11.23190022
rhand  -3.555321452e-031 -6.688370228 15.9076004
rfingers  -90 -7.125020027 -90
rthumb  -78.47748118 -29.88016741 -67.74530237
rfemur  -26.67910004 14.61859989 25.89999962
rtibia  -0 0 30.95229912
rfoot  -0 -14.58940029 -16.84300041
rtoes  1.986514511 19.90512062 -95.81700426
lfemur  -15.97529984 2.671740055 -18.3416996
ltibia  -0 0 60.61109924
lfoot  -0 -7.308760166 21.79590034
ltoes  -1.553310293 -19.94205248 -94.5457867
130
root  0.4710733421 37.19355666 -13.09662166 8.624329567 -1.140910029 -4.562660217
lowerback  -1.979249954 2.176009893 5.201499939
upperback  -2.011460066 2.853100061 2.17057991
thorax  -0.8185319901 1.380630016 -0.6410679817
lowerneck  -15.69760036 -0.1030739993 -2.172420025
upperneck  40.85469818 1.227090001 -1.152009964
head  17.78109932 0.02475580014 0.1042129993
lclavicle  0 5.864150125e-015 -2.067359921e-014
lhumerus  -49.33810043 27.35289955 59.96879959
lradius  -2.815617419e-031 -2.13099568e-031 37.12020111
lwrist  -3.531125038e-031 -0 2.372989893
lhand  -0 -1.822960019 21.6970005
lfingers  90 7.125020027 -90
lthumb  92.12200564 4.789140449 66.06805225
rclavicle  0 5.864150125e-015 -2.067359921e-014
rhumerus  -41.16550064 -12.52579975 -70.69400024
rradius  3.140795351e-031 1.613768446e-031 27.19449997
rwrist  0 -1.765562519e-031 -11.68729973
rhand  -3.548986791e-031 -5.75082016 12.68739986
rfingers  -90 -7.125020027 -90
rthumb  -79.35661742 -26.81533454 -67.384081
rfemur  -26.18790054 14.63309956 26.35239983
rtibia  -0 0 30.82040024
rfoot  -0 -14.3508997 -16.87339973
rtoes  2.054270008 19.89851837 -96.01604528
lfemur  -17.57620049 2.976880074 -17.99909973
ltibia  -0 0 61.86809921
lfoot  -0 -6.703969955 21.21179962
ltoes  -1.693020785 -19.93113765 -94.95551732
131
root  0.4286444563 37.20533416 -12.7994222 8.682849884 -1.238759995 -4.605720043
lowerback  -1.883090019 2.274669886 5.228829861
upperback  -2.011100054 2.991230011 2.153670073
thorax  -0.863090992 1.448269963 -0.6750019789
lowerneck  -15.44410038 -0.2297019958 -2.528439999
upperneck  40.44689941 1.050570011 -0.9463899732
head  17.47750092 -0.06599520147 0.2305510044
lclavicle  0 5.864150125e-015 -2.067359921e-014
lhumerus  -49.61169815 27.41880035 60.17760086
lradius  -2.842074552e-031 -2.095580176e-031 36.4029007
lwrist  -3.531125038e-031 -0 2.197269917
lhand  -3.532000063e-031 -1.275400043 21.38240051
lfingers  90 7.125020027 -90
lthumb  92.00636579 4.419848744 65.55436695
rclavicle  0 5.864150125e-015 -2.067359921e-014
rhumerus  -41.00149918 -12.16889954 -70.97429657
rradius  3.125271686e-031 1.64363041e-031 27.74060059
rwrist  7.062250077e-031 -1.765562519e-031 -12.34109974
rhand  -3.545701698e-031 -5.197140217 11.83609962
rfingers  -90 -7.125020027 -90
rthumb  -79.44120528 -25.98509114 -66.95320877
rfemur  -25.70210075 14.80090046 26.58320045
rtibia  -0 0 30.80200005
rfoot  -0 -14.36800003 -16.96380043
rtoes  1.777417831 19.92408527 -95.20313717
lfemur  -19.0182991 3.414079905 -17.88220024
ltibia  -0 0 62.89860153
lfoot  -0 -6.743939877 20.35129929
ltoes  -1.890550527 -19.9140886 -95.53520297
132
root  0.3949733231 37.20466734 -12.52166643 8.761770248 -1.282510042 -4.392879963
lowerback  -1.814820051 2.329619884 5.105390072
upperback  -2.024499893 3.070410013 1.995830059
thorax  -0.9085239768 1.487179995 -0.7703019977
lowerneck  -15.55130005 -0.2604260147 -2.425740004
upperneck  40.42549896 1.009649992 -1.035210013
head  17.49510002 -0.07925269753 0.163925007
lclavicle  0 5.864150125e-015 -2.067359921e-014
lhumerus  -49.85689926 27.35090065 60.32210159
lradius  -2.862792052e-031 -2.067187873e-031 35.83259964
lwrist  -1.059337512e-030 -0 2.132600069
lhand  -7.063483348e-031 -1.070690036 21.12199974
lfingers  90 7.125020027 -90
lthumb  91.90153785 4.152079611 65.36656289
rclavicle  0 5.864150125e-015 -2.067359921e-014
rhumerus  -40.81529999 -12.0394001 -71.25430298
rradius  3.11176261e-031 1.669064857e-031 28.20789909
rwrist  7.062250077e-031 -1.765562519e-031 -12.66160011
rhand  -3.543167116e-031 -4.725150108 12.2578001
rfingers  -90 -7.125020027 -90
rthumb  -79.01425233 -26.33324901 -66.36509817
rfemur  -25.33600044 14.75889969 26.5182991
rtibia  -0 0 30.91090012
rfoot  -0 -14.85009956 -16.94190025
rtoes  0.01542622197 19.99999429 -90.04510326
lfemur  -20.46969986 3.724869967 -18.1201992
ltibia  -0 0 63.72140121
lfoot  -0 -7.493589878 19.38279915
ltoes  -2.023563149 -19.90153827 -95.92583184
133
root  0.3605955464 37.20933208 -12.22477785 8.832369804 -1.397809982 -4.165709972
lowerback  -1.832810044 2.41128993 4.89729023
upperback  -2.092730045 3.182620049 1.888710022
thorax  -0.9675779939 1.543110013 -0.7638620138
lowerneck  -15.9708004 -0.1754840016 -2.271509886
upperneck  40.93080139 1.181769967 -1.170950055
head  17.89929962 -0.01230600011 0.1052059978
lclavicle  0 5.864150125e-015 -2.067359921e-014
lhumerus  -50.47000122 27.27190018 60.24330139
lradius  -2.881709324e-031 -2.040734037e-031 35.30490112
lwrist  -3.531125038e-031 -3.531125038e-031 1.853270054
lhand  -7.0630974e-031 -0.8875010014 21.91539955
lfingers  90 7.125020027 -90
lthumb  92.2382938 4.844650046 65.16530221
rclavicle  0 5.864150125e-015 -2.067359921e-014
rhumerus  -40.79270172 -11.75889969 -71.43990326
rradius  3.095899984e-031 1.698307195e-031 28.74769974
rwrist  1.412450015e-030 -1.765562519e-031 -13.02600002
rhand  -3.54083385e-031 -4.243919849 11.88679981
rfingers  -90 -7.125020027 -90
rthumb  -78.93525165 -25.95320063 -65.92303253
rfemur  -24.99130058 15.04109955 26.41720009
rtibia  -0 0 31.11269951
rfoot  -0 -15.17370033 -17.60790062
rtoes  0.7743143945 19.98561867 -92.2644644
lfemur  -21.82629967 4.055799961 -18.41020012
ltibia  -0 0 64.30799866
lfoot  -0 -7.962440014 18.71610069
ltoes  -2.232433413 -19.88008761 -96.53973786
134
root  0.3236177869 37.21044345 -11.92328911 8.831899643 -1.537310004 -3.99029994
lowerback  -1.675719976 2.453059912 4.680500031
upperback  -2.16979003 3.254019976 1.838719964
thorax  -1.139860034 1.577039957 -0.7033439875
lowerneck  -16.62150002 0.1643729955 -0.9149649739
upperneck  41.77840042 1.761590004 -2.315829992
head  18.61510086 0.2620289922 -0.5727900267
lclavicle  0 5.864150125e-015 -2.067359921e-014
lhumerus  -51.15599823 27.74419975 59.65679932
lradius  -2.924716877e-031 -1.978604363e-031 34.0788002
lwrist  -7.062250077e-031 -0 0.5837450027
lhand  -7.062609844e-031 -0.5783190131 22.43630028
lfingers  90 7.125020027 -90
lthumb  92.46799112 5.267357849 64.85015727
rclavicle  0 5.864150125e-015 -2.067359921e-014
rhumerus  -40.71640015 -11.45530033 -71.57730103
rradius  3.07932831e-031 1.728172791e-031 29.30190086
rwrist  7.062250077e-031 -0 -13.29699993
rhand  -0 -3.709569931 11.11670017
rfingers  -90 -7.125020027 -90
rthumb  -79.01809799 -25.20755398 -65.50452732
rfemur  -24.53140068 15.45909977 26.39049911
rtibia  -0 0 31.29310036
rfoot  -0 -15.52340031 -18.2064991
rtoes  2.330703957 19.86925678 -96.82879905
lfemur  -23.01390076 4.321959972 -18.64459991
ltibia  -0 0 64.69450378
lfoot  -0 -8.28785038 18.35149956
ltoes  -2.856276477 -19.80326293 -98.377554
